<svg xmlns="http://www.w3.org/2000/svg" viewBox="20 0 150 150" role="img" aria-label="Mascota Tequia">
  <defs>
    <linearGradient id="favicon-mascot-gradient" x1="0%" y1="0%" x2="100%" y2="100%">
      <stop offset="0%" stop-color="#c084fc" />
      <stop offset="55%" stop-color="#7c3aed" />
      <stop offset="100%" stop-color="#4c1d95" />
    </linearGradient>
  </defs>
  <polygon
    points="35,41 57,41 57,22 76.8,22 76.8,41 103.2,41 103.2,22 123,22 123,41 145,41 145,99.9 125.2,99.9 125.2,117 105.4,117 105.4,101.8 74.6,101.8 74.6,117 54.8,117 54.8,99.9 35,99.9"
    fill="url(#favicon-mascot-gradient)"
    stroke="#c4b5fd"
    stroke-width="2.5"
    stroke-linejoin="round"
  />
  <rect x="58" y="67" width="19" height="19" fill="#09090b" />
  <rect x="103" y="67" width="19" height="19" fill="#09090b" />
  <rect x="70" y="102" width="40" height="6" rx="3" fill="#09090b" />
  <g fill="#c4b5fd">
    <rect x="142" y="40" width="6" height="6" transform="rotate(45 145 43)" />
    <rect x="150" y="55" width="5" height="5" transform="rotate(45 152.5 57.5)" />
  </g>
</svg>
